# xmcd
#
# Track frame offsets: 
#        150
#        16126
#        35277
#        46041
#        62807
#        76290
#        89917
#        109383
#        122125
#        137584
#        150173
#
# Disc length: 2191 seconds
#
# Revision: 0
# Processed by: cddbd v1.5.2PL0 Copyright (c) Steve Scherf et al.
# Submitted via: ExactAudioCopyFreeDBPlugin 1.0
#
DISCID=84088d0b
DTITLE=ito and the trails - the murria sunrise
DYEAR=1900
DGENRE=Country
TTITLE0=take it easy
TTITLE1=peacefulleasy feeling
TTITLE2=I look back
TTITLE3=cats and dogs
TTITLE4=heart of gold
TTITLE5=I got a woman
TTITLE6=heard it in a love song
TTITLE7=my one desire
TTITLE8=route 66
TTITLE9=la risa del diablo
TTITLE10=ya se huele a mar
EXTD=
EXTT0=
EXTT1=
EXTT2=
EXTT3=
EXTT4=
EXTT5=
EXTT6=
EXTT7=
EXTT8=
EXTT9=
EXTT10=
PLAYORDER=
